<svg xmlns="http://www.w3.org/2000/svg" viewBox="0 0 100 100"><path d="M90.347 28.419c-1.806-.351-3.747-1-5.684-1.235-2.022-.244-4.331-.051-6.672-.248-2.052-.172-4.178-.737-6.178-.741-4.505-.008-8.971-.553-13.099-.494-2.884.042-5.741.866-8.401.494-2.385-.333-3.925-1.384-5.684-.494-6.696 3.389-14.876 6.453-22.24 9.884-3.582 1.669-7.481 3.426-11.12 4.943C9.633 41.21 7.442 42.12 5.585 43c-1.772.839-3.363 2.047-2.718 4.448 1.946 1.272 4.575 1.129 6.919 1.236 12.63.573 26.584.153 36.079 3.212 1.397.451 2.981 1.237 3.954 1.235 1.455-.002 3.949-1.571 5.931-2.471 10.591-4.806 18.989-9.383 28.914-13.839 1.92-.862 4.07-1.681 5.932-2.718 1.712-.956 3.797-2.146 4.694-3.954-1.039-1.54-3.203-1.392-4.943-1.73zM67.364 38.551c-4.191 1.625-8.916 4.22-13.591 6.425-1.513.714-2.951 2.014-4.202 2.224-2.258.379-4.94-.552-7.413-.988-9.198-1.624-21.165-2.188-32.125-1.236 12.38-5.329 25.443-9.976 36.82-16.31 12.5 1.915 25.816 3.014 40.28 2.965-6.933 2.298-13.039 4.311-19.769 6.92zM90.595 35.833c-1.373.113-3.385 1.402-5.19 2.224-8.631 3.928-16.954 7.546-24.711 12.356-1.83 1.134-8.257 4.619-7.909 7.166.51 3.74 4.828.873 6.426-.247 6.267-4.393 11.781-7.237 19.522-11.368 3.828-2.041 7.895-4.198 11.614-6.178 1.28-.681 3.176-1.292 3.213-2.965-.515-1.047-1.444-1.115-2.965-.988zM88.616 42.753c-3.505 1.458-6.649 3.439-10.132 5.188-6.448 3.243-13.473 7.087-19.521 11.121-2.455 1.635-8.713 4.549-8.155 7.413.767 3.935 5.271.5 6.919-.741 4.866-3.663 9.792-6.672 14.827-9.638 5.589-3.293 10.884-5.501 15.569-8.896 1.359-.985 3.891-1.886 3.707-3.954-.403-1.103-2.535-.776-3.214-.493z"/><path d="M23.872 54.861c1.856.344 4.21 1.306 6.672 1.729 2.593.448 5.224.524 7.66.988 2.895.553 12.496 4.202 13.098 0 .345-2.412-1.89-2.879-4.943-3.46-5.426-1.031-9.119-1.982-14.085-2.718-2.473-.365-5.622-1.1-7.414-1.236-2.747-.209-5.598-.091-8.401-.247-3.121-.171-6.584-.786-8.649-.494-1.847.26-3.091.075-2.965 1.729.108 1.423 2.848 1.562 3.954 1.73 4.996.764 10.823 1.19 15.073 1.979z"/><path d="M87.134 51.647c-5.513 2.817-12.283 5.185-18.286 8.649-2.826 1.632-5.47 3.747-7.908 5.685-2.636 2.095-5.318 3.96-7.66 5.931-1.31-1.909-3.655-2.002-6.178-2.718-3.626-1.03-6.664-1.604-11.12-2.225-5.024-.699-10.185-1.072-15.075-1.729-3.218-.433-11.411-1.98-11.615 1.235-.178 2.813 6.391 3.015 9.144 3.46a673.575 673.575 0 0 0 21.993 3.212c4.378.565 10.204 3.479 13.098.989.655.974 1.225 1.275 2.471 1.235 2.166-.072 7.203-4.553 8.649-5.685 7.093-5.546 14.874-9.278 21.993-14.085 1.402-.947 3.237-1.865 3.955-3.46-.648-1.684-2.76-.851-3.461-.494z"/><path d="M39.193 65.486c3.355.711 7.333 2.875 9.885.495.386-3.12-2.976-3.703-5.684-4.448-5.512-1.516-11.241-2.218-17.545-2.966-3.26-.386-6.366-1.312-8.896-1.481-3.114-.209-9.597-.732-9.39 1.977.149 1.961 7.705 2.563 9.638 2.964 7.244 1.502 15.051 1.99 21.992 3.459z"/><path d="M86.146 59.309c-6.417 3.091-15.104 8.564-21.993 12.604-2.639 1.548-5.595 3.165-6.919 4.694-.604.698-.907 2.072-1.483 2.472-6.671-2.208-13.309-3.224-22.24-3.953-3.641-.298-7.902-1.163-11.367-1.729-2.463-.404-10.379-2.208-10.873.493-.543 2.963 6.318 3.27 9.39 3.954 7.57 1.687 15.239 2.837 22.982 4.201 4.138.729 12.771 3.074 14.58-.494 2.613.298 4.083-1.488 6.178-2.719 6.683-3.924 13.083-7.326 19.274-11.613 1.543-1.068 6.584-3.599 6.179-6.179-.223-1.421-2.233-2.442-3.708-1.731z"/></svg>